<?xml version="1.0" encoding="UTF-8" standalone="no"?>
<svg
   xmlns:dc="http://purl.org/dc/elements/1.1/"
   xmlns:cc="http://creativecommons.org/ns#"
   xmlns:rdf="http://www.w3.org/1999/02/22-rdf-syntax-ns#"
   xmlns:svg="http://www.w3.org/2000/svg"
   xmlns="http://www.w3.org/2000/svg"
   xmlns:sodipodi="http://sodipodi.sourceforge.net/DTD/sodipodi-0.dtd"
   xmlns:inkscape="http://www.inkscape.org/namespaces/inkscape"
   id="workspace"
   width="255mm"
   height="130mm"
   focusable="true"
   preserveAspectRatio="xMinYMin"
   version="1.1"
   viewBox="-96 -263 963.77949 491.33856"
   sodipodi:docname="GROOLS_mindmap.svg"
   inkscape:version="0.92.1 r">
  <metadata
     id="metadata491">
    <rdf:RDF>
      <cc:Work
         rdf:about="">
        <dc:format>image/svg+xml</dc:format>
        <dc:type
           rdf:resource="http://purl.org/dc/dcmitype/StillImage" />
        <dc:title />
      </cc:Work>
    </rdf:RDF>
  </metadata>
  <defs
     id="defs489" />
  <sodipodi:namedview
     pagecolor="#ffffff"
     bordercolor="#666666"
     borderopacity="1"
     objecttolerance="10"
     gridtolerance="10"
     guidetolerance="10"
     inkscape:pageopacity="0"
     inkscape:pageshadow="2"
     inkscape:window-width="1920"
     inkscape:window-height="1053"
     id="namedview487"
     showgrid="false"
     inkscape:zoom="1.8717974"
     inkscape:cx="393.09999"
     inkscape:cy="217.81326"
     inkscape:window-x="0"
     inkscape:window-y="27"
     inkscape:window-maximized="1"
     inkscape:current-layer="workspace" />
  <rect
     style="opacity:1;fill:#ffffff;fill-opacity:1;stroke:#fffeff;stroke-width:1.61066616;stroke-miterlimit:4;stroke-dasharray:none;stroke-opacity:1"
     id="rect4968"
     width="962.16888"
     height="489.72794"
     x="-95.194664"
     y="-263.79742" />
  <path
     d="m624.39 175.67 4.4845-3.9862m-4.4845 3.9862 3.9862 4.4845"
     stroke="#9b74e6"
     stroke-width="2px"
     id="path2" />
  <g
     fill="none"
     stroke="#495879"
     stroke-width="1px"
     id="g78">
    <path
       d="m251.39-119.33h29"
       id="path4" />
    <path
       d="m167.39-174.33c9 0 20 55 29 55"
       id="path6" />
    <path
       d="m95.39-9.3307c10 0 21-165 31-165"
       id="path8" />
    <path
       d="m345.39-119.33c9 0 19 12 28 12"
       id="path10" />
    <path
       d="m345.39-119.33c9 0 19-12 28-12"
       id="path12" />
    <path
       d="m325.39-191.33c9 0 20 36 29 36"
       id="path14" />
    <path
       d="m325.39-191.33c9 0 20 12 29 12"
       id="path16" />
    <path
       d="m325.39-191.33c9 0 20-12 29-12"
       id="path18" />
    <path
       d="m325.39-191.33c9 0 20-36 29-36"
       id="path20" />
    <path
       d="m167.39-174.33c9 0 20-17 29-17"
       id="path22" />
    <path
       d="m545.39 194.67c10 0 21 5 31 5"
       id="path24" />
    <path
       d="m545.39 194.67c10 0 21-19 31-19"
       id="path26" />
    <path
       d="m413.39 187.67c9 0 20 7 29 7"
       id="path28" />
    <path
       d="m325.39 163.67c10 0 21 24 31 24"
       id="path30" />
    <path
       d="m538.39 146.67c10 0 21 5 31 5"
       id="path32" />
    <path
       d="m538.39 146.67c10 0 21-19 31-19"
       id="path34" />
    <path
       d="m407.39 139.67c9 0 19 7 28 7"
       id="path36" />
    <path
       d="m325.39 163.67c10 0 21-24 31-24"
       id="path38" />
    <path
       d="m238.39 62.669c10 0 20 101 30 101"
       id="path40" />
    <path
       d="m452.39 110.67h29"
       id="path42" />
    <path
       d="m365.39 7.6693c9 0 19 103 28 103"
       id="path44" />
    <path
       d="m440.39 86.669h28"
       id="path46" />
    <path
       d="m365.39 7.6693c9 0 19 79 28 79"
       id="path48" />
    <path
       d="m610.39 38.669c9 0 19 24 28 24"
       id="path50" />
    <path
       d="m610.39 38.669h28"
       id="path52" />
    <path
       d="m610.39 38.669c9 0 19-24 28-24"
       id="path54" />
    <path
       d="m492.39 38.669h29"
       id="path56" />
    <path
       d="m365.39 7.6693c9 0 19 31 28 31"
       id="path58" />
    <path
       d="m581.39-45.331c9 0 20 36 29 36"
       id="path60" />
    <path
       d="m581.39-45.331c9 0 20 12 29 12"
       id="path62" />
    <path
       d="m581.39-45.331c9 0 20-12 29-12"
       id="path64" />
    <path
       d="m581.39-45.331c9 0 20-36 29-36"
       id="path66" />
    <path
       d="m494.39-45.331h28"
       id="path68" />
    <path
       d="m365.39 7.6693c9 0 19-53 28-53"
       id="path70" />
    <path
       d="m238.39 62.669c10 0 20-55 30-55"
       id="path72" />
    <path
       d="m165.39 62.669h28"
       id="path74" />
    <path
       d="m95.39-9.3307c9 0 20 72 29 72"
       id="path76" />
  </g>
  <path
     style="fill:#495879;stroke:#495879;stroke-width:1px"
     inkscape:connector-curvature="0"
     id="path80"
     d="m -41.61,-28.331 c 24,0 50,19 74,19 -24,3 -50,-14 -74,-12 z" />
  <g
     id="g90"
     preserveAspectRatio="none"
     focusable="true"
     height="100"
     width="100"
     transform="translate(-87.61,-47.331)">
    <rect
       style="fill-opacity:0;stroke-opacity:0"
       id="rect82"
       ry="6.5999999"
       rx="6.5999999"
       height="44"
       width="96"
       y="-3"
       x="-2" />
    <rect
       style="fill:#509dc0;stroke:#3971b1;stroke-width:2px"
       y="0"
       x="0"
       id="rect84"
       ry="5.6999998"
       rx="5.6999998"
       height="38"
       width="92" />
    <text
       style="font-weight:bold;font-size:13.43799973px;font-family:verdana;fill:#ffffff"
       id="text88"
       font-weight="bold"
       font-size="13.438px"
       y="11"
       x="11">
      <tspan
         id="tspan86"
         dy="1em"
         x="11">GROOLS</tspan>
    </text>
  </g>
  <g
     id="g102"
     preserveAspectRatio="none"
     focusable="true"
     height="100"
     width="100"
     transform="translate(32.39,-27.331)">
    <rect
       style="fill-opacity:0;stroke-opacity:0"
       id="rect92"
       ry="3.5999999"
       rx="3.5999999"
       height="24"
       width="66"
       y="-3"
       x="-2" />
    <line
       style="stroke:#495879;stroke-width:1px"
       x1="0"
       id="line94"
       y2="18"
       y1="18"
       x2="62" />
    <text
       style="font-size:10.75px;font-family:verdana;fill:#525c61"
       id="text98"
       font-size="10.75px"
       y="3"
       x="3">
      <tspan
         id="tspan96"
         dy="1em"
         x="3">Raisonneur</tspan>
    </text>
    <circle
       style="fill:#e0e5ef;stroke:#023bb9;stroke-width:1px"
       id="circle100"
       r="3"
       cy="18"
       cx="65"
       height="6"
       width="6" />
  </g>
  <g
     id="g114"
     preserveAspectRatio="none"
     focusable="true"
     height="100"
     width="100"
     transform="translate(193.39,48.669)">
    <rect
       style="fill-opacity:0;stroke-opacity:0"
       id="rect104"
       ry="3"
       rx="3"
       height="20"
       width="43"
       y="-3"
       x="-2" />
    <line
       style="stroke:#495879;stroke-width:1px"
       x1="0"
       id="line106"
       y2="14"
       y1="14"
       x2="39" />
    <text
       style="font-size:8.0625px;font-family:verdana;fill:#525c61"
       id="text110"
       font-size="8.0625px"
       y="3"
       x="3">
      <tspan
         id="tspan108"
         dy="1em"
         x="3">Graphe</tspan>
    </text>
    <circle
       style="fill:#e0e5ef;stroke:#023bb9;stroke-width:1px"
       id="circle112"
       r="3"
       cy="14"
       cx="42"
       height="6"
       width="6" />
  </g>
  <g
     id="g126"
     preserveAspectRatio="none"
     focusable="true"
     height="100"
     width="100"
     transform="translate(122.39,48.669)">
    <rect
       style="fill-opacity:0;stroke-opacity:0"
       id="rect116"
       ry="3"
       rx="3"
       height="20"
       width="47"
       y="-3"
       x="-2" />
    <line
       style="stroke:#495879;stroke-width:1px"
       x1="0"
       id="line118"
       y2="14"
       y1="14"
       x2="43" />
    <text
       style="font-size:8.0625px;font-family:verdana;fill:#525c61"
       id="text122"
       font-size="8.0625px"
       y="3"
       x="3">
      <tspan
         id="tspan120"
         dy="1em"
         x="3">Concept</tspan>
    </text>
    <circle
       style="fill:#cfe2f3;stroke:#023bb9;stroke-width:1px"
       id="circle124"
       r="3"
       cy="14"
       cx="46"
       height="6"
       width="6" />
  </g>
  <g
     id="g138"
     preserveAspectRatio="none"
     focusable="true"
     height="100"
     width="100"
     transform="translate(266.39,0.6693)">
    <rect
       style="fill-opacity:0;stroke-opacity:0"
       id="rect128"
       ry="3"
       rx="3"
       height="20"
       width="101"
       y="-3"
       x="-2" />
    <rect
       style="fill:#f4b82d;stroke:#f1a327;stroke-width:2px"
       y="0"
       x="0"
       id="rect130"
       ry="2.0999999"
       rx="2.0999999"
       height="14"
       width="97" />
    <text
       style="font-size:8.0625px;font-family:verdana;fill:#ffffff"
       id="text134"
       font-size="8.0625px"
       y="3"
       x="3">
      <tspan
         id="tspan132"
         dy="1em"
         x="3">Connaissance à priori</tspan>
    </text>
    <circle
       style="fill:#f4b82d;stroke:#f1a327;stroke-width:1px"
       id="circle136"
       r="3"
       cy="7"
       cx="100"
       height="6"
       width="6" />
  </g>
  <g
     id="g150"
     preserveAspectRatio="none"
     focusable="true"
     height="100"
     width="100"
     transform="translate(393.39,-59.331)">
    <rect
       style="fill-opacity:0;stroke-opacity:0"
       id="rect140"
       ry="3"
       rx="3"
       height="20"
       width="103"
       y="-3"
       x="-2" />
    <line
       style="stroke:#495879;stroke-width:1px"
       x1="0"
       id="line142"
       y2="14"
       y1="14"
       x2="99" />
    <text
       style="font-size:8.0625px;font-family:verdana;fill:#525c61"
       id="text146"
       font-size="8.0625px"
       y="3"
       x="3">
      <tspan
         id="tspan144"
         dy="1em"
         x="3">Réseaux métaboliques</tspan>
    </text>
    <circle
       style="fill:#e0e5ef;stroke:#023bb9;stroke-width:1px"
       id="circle148"
       r="3"
       cy="14"
       cx="102"
       height="6"
       width="6" />
  </g>
  <g
     id="g162"
     preserveAspectRatio="none"
     focusable="true"
     height="100"
     width="100"
     transform="translate(522.39,-59.331)">
    <rect
       style="fill-opacity:0;stroke-opacity:0"
       id="rect152"
       ry="3"
       rx="3"
       height="20"
       width="62"
       y="-3"
       x="-2" />
    <line
       style="stroke:#495879;stroke-width:1px"
       x1="0"
       id="line154"
       y2="14"
       y1="14"
       x2="58" />
    <text
       style="font-size:8.0625px;font-family:verdana;fill:#525c61"
       id="text158"
       font-size="8.0625px"
       y="3"
       x="3">
      <tspan
         id="tspan156"
         dy="1em"
         x="3">Unipathway</tspan>
    </text>
    <circle
       style="fill:#e0e5ef;stroke:#023bb9;stroke-width:1px"
       id="circle160"
       r="3"
       cy="14"
       cx="61"
       height="6"
       width="6" />
  </g>
  <rect
     style="fill-opacity:0;stroke-opacity:0"
     id="rect164"
     ry="3"
     rx="3"
     height="20"
     width="107"
     y="-98.331001"
     x="608.39001" />
  <line
     style="stroke:#495879;stroke-width:1px"
     id="line166"
     y2="-81.331001"
     y1="-81.331001"
     x2="713.39001"
     x1="610.39001" />
  <text
     style="font-size:8.0625px;font-family:verdana;fill:#525c61"
     id="text170"
     font-size="8.0625px"
     y="-96.330704"
     x="613.38977">
    <tspan
       id="tspan168"
       dy="12"
       x="613.38977">Voie métabolique (UPA)</tspan>
  </text>
  <rect
     style="fill-opacity:0;stroke-opacity:0"
     id="rect172"
     ry="3"
     rx="3"
     height="20"
     width="158"
     y="-74.331001"
     x="608.39001" />
  <line
     style="stroke:#495879;stroke-width:1px"
     id="line174"
     y2="-57.331001"
     y1="-57.331001"
     x2="764.39001"
     x1="610.39001" />
  <text
     style="font-size:8.0625px;font-family:verdana;fill:#525c61"
     id="text178"
     font-size="8.0625px"
     y="-72.330704"
     x="613.38977">
    <tspan
       id="tspan176"
       dy="12"
       x="613.38977">Chemin sans embranchement (ULS)</tspan>
  </text>
  <rect
     style="fill-opacity:0;stroke-opacity:0"
     id="rect180"
     ry="3"
     rx="3"
     height="20"
     width="130"
     y="-50.331001"
     x="608.39001" />
  <line
     style="stroke:#495879;stroke-width:1px"
     id="line182"
     y2="-33.331001"
     y1="-33.331001"
     x2="736.39001"
     x1="610.39001" />
  <text
     style="font-size:8.0625px;font-family:verdana;fill:#525c61"
     id="text186"
     font-size="8.0625px"
     y="-48.3307"
     x="613.38977">
    <tspan
       id="tspan184"
       dy="12"
       x="613.38977">Réaction enzymatique (UER)</tspan>
  </text>
  <rect
     style="fill-opacity:0;stroke-opacity:0"
     id="rect188"
     ry="3"
     rx="3"
     height="20"
     width="253"
     y="-26.330999"
     x="608.39001" />
  <line
     style="stroke:#495879;stroke-width:1px"
     id="line190"
     y2="-9.3306999"
     y1="-9.3306999"
     x2="859.39001"
     x1="610.39001" />
  <text
     style="font-size:8.0625px;font-family:verdana;fill:#525c61"
     id="text194"
     font-size="8.0625px"
     y="-24.3307"
     x="613.38977">
    <tspan
       id="tspan192"
       dy="12"
       x="613.38977">Composé chimique impliqué dans la réaction (UCR et UPC )</tspan>
  </text>
  <g
     id="g206"
     preserveAspectRatio="none"
     focusable="true"
     height="100"
     width="100"
     transform="translate(393.39,24.669)">
    <rect
       style="fill-opacity:0;stroke-opacity:0"
       id="rect196"
       ry="3"
       rx="3"
       height="20"
       width="102"
       y="-3"
       x="-2" />
    <line
       style="stroke:#495879;stroke-width:1px"
       x1="0"
       id="line198"
       y2="14"
       y1="14"
       x2="98" />
    <text
       style="font-size:8.0625px;font-family:verdana;fill:#525c61"
       id="text202"
       font-size="8.0625px"
       y="3"
       x="3">
      <tspan
         id="tspan200"
         dy="1em"
         x="3">Processus biologiques</tspan>
    </text>
    <circle
       style="fill:#e0e5ef;stroke:#023bb9;stroke-width:1px"
       id="circle204"
       r="3"
       cy="14"
       cx="101"
       height="6"
       width="6" />
  </g>
  <g
     id="g218"
     preserveAspectRatio="none"
     focusable="true"
     height="100"
     width="100"
     transform="translate(521.39,24.669)">
    <rect
       style="fill-opacity:0;stroke-opacity:0"
       id="rect208"
       ry="3"
       rx="3"
       height="20"
       width="91"
       y="-3"
       x="-2" />
    <line
       style="stroke:#495879;stroke-width:1px"
       x1="0"
       id="line210"
       y2="14"
       y1="14"
       x2="87" />
    <text
       style="font-size:8.0625px;font-family:verdana;fill:#525c61"
       id="text214"
       font-size="8.0625px"
       y="3"
       x="3">
      <tspan
         id="tspan212"
         dy="1em"
         x="3">Genome-Propreties</tspan>
    </text>
    <circle
       style="fill:#e0e5ef;stroke:#023bb9;stroke-width:1px"
       id="circle216"
       r="3"
       cy="14"
       cx="90"
       height="6"
       width="6" />
  </g>
  <rect
     style="fill-opacity:0;stroke-opacity:0"
     id="rect220"
     ry="3"
     rx="3"
     height="20"
     width="52"
     y="-2.3306999"
     x="636.39001" />
  <line
     style="stroke:#495879;stroke-width:1px"
     id="line222"
     y2="14.669"
     y1="14.669"
     x2="686.39001"
     x1="638.39001" />
  <text
     style="font-size:8.0625px;font-family:verdana;fill:#525c61"
     id="text226"
     font-size="8.0625px"
     y="-0.33071604"
     x="641.38977">
    <tspan
       id="tspan224"
       dy="12"
       x="641.38977">Propriété</tspan>
  </text>
  <rect
     style="fill-opacity:0;stroke-opacity:0"
     id="rect228"
     ry="3"
     rx="3"
     height="20"
     width="58"
     y="21.669001"
     x="636.39001" />
  <line
     style="stroke:#495879;stroke-width:1px"
     id="line230"
     y2="38.668999"
     y1="38.668999"
     x2="692.39001"
     x1="638.39001" />
  <text
     style="font-size:8.0625px;font-family:verdana;fill:#525c61"
     id="text234"
     font-size="8.0625px"
     y="23.669285"
     x="641.38977">
    <tspan
       id="tspan232"
       dy="12"
       x="641.38977">Composant</tspan>
  </text>
  <rect
     style="fill-opacity:0;stroke-opacity:0"
     id="rect236"
     ry="3"
     rx="3"
     height="20"
     width="50"
     y="45.668999"
     x="636.39001" />
  <line
     style="stroke:#495879;stroke-width:1px"
     id="line238"
     y2="62.668999"
     y1="62.668999"
     x2="684.39001"
     x1="638.39001" />
  <text
     style="font-size:8.0625px;font-family:verdana;fill:#525c61"
     id="text242"
     font-size="8.0625px"
     y="47.669285"
     x="641.38977">
    <tspan
       id="tspan240"
       dy="12"
       x="641.38977">Evidence</tspan>
  </text>
  <g
     id="g254"
     preserveAspectRatio="none"
     focusable="true"
     height="100"
     width="100"
     transform="translate(393.39,72.669)">
    <rect
       style="fill-opacity:0;stroke-opacity:0"
       id="rect244"
       ry="3"
       rx="3"
       height="20"
       width="49"
       y="-3"
       x="-2" />
    <line
       style="stroke:#495879;stroke-width:1px"
       x1="0"
       id="line246"
       y2="14"
       y1="14"
       x2="45" />
    <text
       style="font-size:8.0625px;font-family:verdana;fill:#525c61"
       id="text250"
       font-size="8.0625px"
       y="3"
       x="3">
      <tspan
         id="tspan248"
         dy="1em"
         x="3">Partition</tspan>
    </text>
    <circle
       style="fill:#cfe2f3;stroke:#023bb9;stroke-width:1px"
       id="circle252"
       r="3"
       cy="14"
       cx="48"
       height="6"
       width="6" />
  </g>
  <rect
     style="fill-opacity:0;stroke-opacity:0"
     id="rect256"
     ry="3"
     rx="3"
     height="20"
     width="246"
     y="69.668999"
     x="466.39001" />
  <line
     style="stroke:#495879;stroke-width:1px"
     id="line258"
     y2="86.668999"
     y1="86.668999"
     x2="710.39001"
     x1="468.39001" />
  <text
     style="font-size:8.0625px;font-family:verdana;fill:#525c61"
     id="text262"
     font-size="8.0625px"
     y="71.669281"
     x="471.38977">
    <tspan
       id="tspan260"
       dy="12"
       x="471.38977">ensemble de concept définissant un concept plus générale</tspan>
  </text>
  <g
     id="g274"
     preserveAspectRatio="none"
     focusable="true"
     height="100"
     width="100"
     transform="translate(393.39,96.669)">
    <rect
       style="fill-opacity:0;stroke-opacity:0"
       id="rect264"
       ry="3"
       rx="3"
       height="20"
       width="62"
       y="-3"
       x="-2" />
    <line
       style="stroke:#495879;stroke-width:1px"
       x1="0"
       id="line266"
       y2="14"
       y1="14"
       x2="58" />
    <text
       style="font-size:8.0625px;font-family:verdana;fill:#525c61"
       id="text270"
       font-size="8.0625px"
       y="3"
       x="3">
      <tspan
         id="tspan268"
         dy="1em"
         x="3">Equivalence</tspan>
    </text>
    <circle
       style="fill:#cfe2f3;stroke:#023bb9;stroke-width:1px"
       id="circle272"
       r="3"
       cy="14"
       cx="61"
       height="6"
       width="6" />
  </g>
  <rect
     style="fill-opacity:0;stroke-opacity:0"
     id="rect276"
     ry="3"
     rx="3"
     height="20"
     width="346"
     y="93.668999"
     x="479.39001" />
  <line
     style="stroke:#495879;stroke-width:0.91674px"
     id="line278"
     y2="110.67"
     y1="110.67"
     x2="768.81"
     x1="481.39001" />
  <text
     style="font-size:8.0625px;font-family:verdana;fill:#525c61"
     id="text282"
     font-size="8.0625px"
     y="95.669281"
     x="471.38977">
    <tspan
       id="tspan280"
       dy="12"
       x="471.38977">ensemble de chemin de concept, disjoint représentant un même concept</tspan>
  </text>
  <g
     id="g294"
     preserveAspectRatio="none"
     focusable="true"
     height="100"
     width="100"
     transform="translate(266.39,156.67)">
    <rect
       style="fill-opacity:0;stroke-opacity:0"
       id="rect284"
       ry="3"
       rx="3"
       height="20"
       width="62"
       y="-3"
       x="-2" />
    <rect
       style="fill:#a64d79;stroke:#4c1130;stroke-width:2px"
       y="0"
       x="0"
       id="rect286"
       ry="2.0999999"
       rx="2.0999999"
       height="14"
       width="58" />
    <text
       style="font-size:8.0625px;font-family:verdana;fill:#ffffff"
       id="text290"
       font-size="8.0625px"
       y="3"
       x="3">
      <tspan
         id="tspan288"
         dy="1em"
         x="3">Observation</tspan>
    </text>
    <circle
       style="fill:#a64d79;stroke:#4c1130;stroke-width:1px"
       id="circle292"
       r="3"
       cy="7"
       cx="61"
       height="6"
       width="6" />
  </g>
  <g
     id="g306"
     preserveAspectRatio="none"
     focusable="true"
     height="100"
     width="100"
     transform="translate(354.39,132.67)">
    <rect
       style="fill-opacity:0;stroke-opacity:0"
       id="rect296"
       ry="3"
       rx="3"
       height="20"
       width="55"
       y="-3"
       x="-2" />
    <rect
       style="fill:#3d85c6;stroke:#3971b1;stroke-width:2px"
       y="0"
       x="0"
       id="rect298"
       ry="2.0999999"
       rx="2.0999999"
       height="14"
       width="51" />
    <text
       style="font-size:8.0625px;font-family:verdana;fill:#ffffff"
       id="text302"
       font-size="8.0625px"
       y="3"
       x="3">
      <tspan
         id="tspan300"
         dy="1em"
         x="3">Prediction</tspan>
    </text>
    <circle
       style="fill:#3d85c6;stroke:#3971b1;stroke-width:1px"
       id="circle304"
       r="3"
       cy="7"
       cx="54"
       height="6"
       width="6" />
  </g>
  <g
     id="g318"
     preserveAspectRatio="none"
     focusable="true"
     height="100"
     width="100"
     transform="translate(435.39,132.67)">
    <rect
       style="fill-opacity:0;stroke-opacity:0"
       id="rect308"
       ry="3"
       rx="3"
       height="20"
       width="106"
       y="-3"
       x="-2" />
    <line
       style="stroke:#495879;stroke-width:1px"
       x1="0"
       id="line310"
       y2="14"
       y1="14"
       x2="102" />
    <text
       style="font-size:8.0625px;font-family:verdana;fill:#525c61"
       id="text314"
       font-size="8.0625px"
       y="3"
       x="3">
      <tspan
         id="tspan312"
         dy="1em"
         x="3">Annotation fonctionelle</tspan>
    </text>
    <circle
       style="fill:#e0e5ef;stroke:#023bb9;stroke-width:1px"
       id="circle316"
       r="3"
       cy="14"
       cx="105"
       height="6"
       width="6" />
  </g>
  <rect
     style="fill-opacity:0;stroke-opacity:0"
     id="rect320"
     ry="3"
     rx="3"
     height="20"
     width="106"
     y="117.67"
     x="565.39001" />
  <rect
     style="fill:#ffffff;stroke:#9900ff;stroke-width:2px"
     id="rect322"
     ry="6.3000002"
     rx="6.3000002"
     height="14"
     width="102"
     y="120.67"
     x="567.39001" />
  <text
     style="font-size:8.0625px;font-family:verdana;fill:#525c61"
     id="text326"
     font-size="8.0625px"
     y="117.89355"
     x="570.38977">
    <tspan
       id="tspan324"
       dy="12"
       x="570.38977">Outils bioinformatiques</tspan>
  </text>
  <g
     id="g338"
     preserveAspectRatio="none"
     focusable="true"
     height="100"
     width="100"
     transform="translate(567.39,144.67)">
    <rect
       style="fill-opacity:0;stroke-opacity:0"
       id="rect328"
       ry="3"
       rx="3"
       height="20"
       width="49"
       y="-3"
       x="-2" />
    <rect
       style="fill:#ffffff;stroke:#023bb9;stroke-width:2px"
       y="0"
       x="0"
       id="rect330"
       ry="6.3000002"
       rx="6.3000002"
       height="14"
       width="45" />
    <text
       style="font-size:8.0625px;font-family:verdana;fill:#525c61"
       id="text334"
       font-size="8.0625px"
       y="3"
       x="3">
      <tspan
         id="tspan332"
         dy="1em"
         x="3">Curation</tspan>
    </text>
    <circle
       style="visibility:hidden;fill:#ffffff;stroke:#023bb9;stroke-width:1px"
       id="circle336"
       visibility="hidden"
       r="3"
       cy="7"
       cx="48"
       height="6"
       width="6" />
  </g>
  <g
     id="g350"
     preserveAspectRatio="none"
     focusable="true"
     height="100"
     width="100"
     transform="translate(354.39,180.67)">
    <rect
       style="fill-opacity:0;stroke-opacity:0"
       id="rect340"
       ry="3"
       rx="3"
       height="20"
       width="62"
       y="-3"
       x="-2" />
    <rect
       style="fill:#6aa84f;stroke:#38761d;stroke-width:2px"
       y="0"
       x="0"
       id="rect342"
       ry="2.0999999"
       rx="2.0999999"
       height="14"
       width="58" />
    <text
       style="font-size:8.0625px;font-family:verdana;fill:#ffffff"
       id="text346"
       font-size="8.0625px"
       y="3"
       x="3">
      <tspan
         id="tspan344"
         dy="1em"
         x="3">Expectation</tspan>
    </text>
    <circle
       style="fill:#6aa84f;stroke:#38761d;stroke-width:1px"
       id="circle348"
       r="3"
       cy="7"
       cx="61"
       height="6"
       width="6" />
  </g>
  <g
     id="g362"
     preserveAspectRatio="none"
     focusable="true"
     height="100"
     width="100"
     transform="translate(442.39,180.67)">
    <rect
       style="fill-opacity:0;stroke-opacity:0"
       id="rect352"
       ry="3"
       rx="3"
       height="20"
       width="106"
       y="-3"
       x="-2" />
    <line
       style="stroke:#495879;stroke-width:1px"
       x1="0"
       id="line354"
       y2="14"
       y1="14"
       x2="102" />
    <text
       style="font-size:8.0625px;font-family:verdana;fill:#525c61"
       id="text358"
       font-size="8.0625px"
       y="3"
       x="3">
      <tspan
         id="tspan356"
         dy="1em"
         x="3">information empririque</tspan>
    </text>
    <circle
       style="fill:#e0e5ef;stroke:#023bb9;stroke-width:1px"
       id="circle360"
       r="3"
       cy="14"
       cx="105"
       height="6"
       width="6" />
  </g>
  <rect
     style="fill-opacity:0;stroke-opacity:0"
     id="rect364"
     ry="3"
     rx="3"
     height="20"
     width="49"
     y="165.67"
     x="572.39001" />
  <rect
     style="fill:#ffffff;stroke:#023bb9;stroke-width:2px"
     id="rect366"
     ry="6.3000002"
     rx="6.3000002"
     height="14"
     width="45"
     y="168.67"
     x="574.39001" />
  <text
     style="font-size:8.0625px;font-family:verdana;fill:#525c61"
     id="text370"
     font-size="8.0625px"
     y="166.67502"
     x="577.38977">
    <tspan
       id="tspan368"
       dy="12"
       x="577.38977">Curation</tspan>
  </text>
  <rect
     style="fill-opacity:0;stroke-opacity:0"
     id="rect372"
     ry="3"
     rx="3"
     height="20"
     width="80"
     y="189.67"
     x="572.39001" />
  <rect
     style="fill:#ffffff;stroke:#38761d;stroke-width:2px"
     id="rect374"
     ry="6.3000002"
     rx="6.3000002"
     height="14"
     width="76"
     y="192.67"
     x="574.39001" />
  <text
     style="font-size:8.0625px;font-family:verdana;fill:#525c61"
     id="text378"
     font-size="8.0625px"
     y="189.89355"
     x="577.38977">
    <tspan
       id="tspan376"
       dy="12"
       x="577.38977">Experimentation</tspan>
  </text>
  <line
     x1="-41.61"
     x2="-41.61"
     y1="-28.331"
     y2="-28.331"
     fill-opacity=".3"
     stroke="#6589de"
     stroke-opacity=".3"
     stroke-width="1px"
     id="line382" />
  <line
     x1="-41.61"
     x2="-41.61"
     y1="-28.331"
     y2="-28.331"
     fill-opacity=".3"
     stroke="#6589de"
     stroke-opacity=".3"
     stroke-width="1px"
     id="line384" />
  <g
     id="g396"
     preserveAspectRatio="none"
     focusable="true"
     height="100"
     width="100"
     transform="translate(124.39,-181.33)">
    <rect
       style="fill-opacity:0;stroke-opacity:0"
       id="rect386"
       ry="3"
       rx="3"
       height="20"
       width="46"
       y="-3"
       x="-2" />
    <rect
       style="fill:#ea9999;stroke:#e06666;stroke-width:2px"
       y="0"
       x="0"
       id="rect388"
       ry="2.0999999"
       rx="2.0999999"
       height="14"
       width="42" />
    <text
       style="font-size:8.0625px;font-family:verdana;fill:#525c61"
       id="text392"
       font-size="8.0625px"
       y="3"
       x="3">
      <tspan
         id="tspan390"
         dy="1em"
         x="3">Logique</tspan>
    </text>
    <circle
       style="fill:#ea9999;stroke:#e06666;stroke-width:1px"
       id="circle394"
       r="3"
       cy="7"
       cx="45"
       height="6"
       width="6" />
  </g>
  <rect
     style="fill-opacity:0;stroke-opacity:0"
     id="rect398"
     ry="3"
     rx="3"
     height="20"
     width="132"
     y="-208.33"
     x="194.39" />
  <line
     style="stroke:#495879;stroke-width:1px"
     id="line400"
     y2="-191.33"
     y1="-191.33"
     x2="324.39001"
     x1="196.39" />
  <text
     style="font-size:8.0625px;font-family:verdana;fill:#525c61"
     id="text404"
     font-size="8.0625px"
     y="-207.94502"
     x="193.82678">
    <tspan
       id="tspan402"
       dy="12"
       x="193.82678">Valeur de vérité généralisé</tspan>
  </text>
  <circle
     style="fill:#cfe2f3;stroke:#023bb9;stroke-width:1px"
     id="circle406"
     r="3"
     cy="-191.33"
     cx="327.39001"
     height="6"
     width="6" />
  <rect
     style="fill-opacity:0;stroke-opacity:0"
     id="rect408"
     ry="3"
     rx="3"
     height="20"
     width="38"
     y="-244.33"
     x="352.39001" />
  <line
     style="stroke:#495879;stroke-width:1px"
     id="line410"
     y2="-227.33"
     y1="-227.33"
     x2="388.39001"
     x1="354.39001" />
  <text
     style="font-size:8.0625px;font-family:verdana;fill:#525c61"
     id="text414"
     font-size="8.0625px"
     y="-242.3307"
     x="357.38977">
    <tspan
       id="tspan412"
       dy="12"
       x="357.38977">Vérité</tspan>
  </text>
  <rect
     style="fill-opacity:0;stroke-opacity:0"
     id="rect416"
     ry="3"
     rx="3"
     height="20"
     width="49"
     y="-220.33"
     x="352.39001" />
  <line
     style="stroke:#495879;stroke-width:1px"
     id="line418"
     y2="-203.33"
     y1="-203.33"
     x2="399.39001"
     x1="354.39001" />
  <text
     style="font-size:8.0625px;font-family:verdana;fill:#525c61"
     id="text422"
     font-size="8.0625px"
     y="-218.3307"
     x="357.38977">
    <tspan
       id="tspan420"
       dy="12"
       x="357.38977">Fausseté</tspan>
  </text>
  <rect
     style="fill-opacity:0;stroke-opacity:0"
     id="rect424"
     ry="3"
     rx="3"
     height="20"
     width="70"
     y="-196.33"
     x="352.39001" />
  <line
     style="stroke:#495879;stroke-width:1px"
     id="line426"
     y2="-179.33"
     y1="-179.33"
     x2="420.39001"
     x1="354.39001" />
  <text
     style="font-size:8.0625px;font-family:verdana;fill:#525c61"
     id="text430"
     font-size="8.0625px"
     y="-194.3307"
     x="357.38977">
    <tspan
       id="tspan428"
       dy="12"
       x="357.38977">Inconcistence</tspan>
  </text>
  <rect
     style="fill-opacity:0;stroke-opacity:0"
     id="rect432"
     ry="3"
     rx="3"
     height="20"
     width="64"
     y="-172.33"
     x="352.39001" />
  <line
     style="stroke:#495879;stroke-width:1px"
     id="line434"
     y2="-155.33"
     y1="-155.33"
     x2="414.39001"
     x1="354.39001" />
  <text
     style="font-size:8.0625px;font-family:verdana;fill:#525c61"
     id="text438"
     font-size="8.0625px"
     y="-170.3307"
     x="357.38977">
    <tspan
       id="tspan436"
       dy="12"
       x="357.38977">Incohérence</tspan>
  </text>
  <g
     id="g452"
     preserveAspectRatio="none"
     focusable="true"
     height="100"
     width="100"
     transform="translate(280.39,-133.33)">
    <rect
       style="fill-opacity:0;stroke-opacity:0"
       id="rect440"
       ry="3"
       rx="3"
       height="20"
       width="67"
       y="-3"
       x="-2" />
    <g
       id="g450">
      <line
         style="stroke:#495879;stroke-width:1px"
         x1="0"
         id="line442"
         y2="14"
         y1="14"
         x2="63" />
      <text
         style="font-size:8.0625px;font-family:verdana;fill:#525c61"
         id="text446"
         font-size="8.0625px"
         y="3"
         x="3">
        <tspan
           id="tspan444"
           dy="1em"
           x="3">Consequence</tspan>
      </text>
      <circle
         style="fill:#cfe2f3;stroke:#023bb9;stroke-width:1px"
         id="circle448"
         r="3"
         cy="14"
         cx="66"
         height="6"
         width="6" />
    </g>
  </g>
  <rect
     style="fill-opacity:0;stroke-opacity:0"
     id="rect454"
     ry="3"
     rx="3"
     height="20"
     width="58"
     y="-148.33"
     x="371.39001" />
  <line
     style="stroke:#495879;stroke-width:1px"
     id="line456"
     y2="-131.33"
     y1="-131.33"
     x2="427.39001"
     x1="373.39001" />
  <text
     style="font-size:8.0625px;font-family:verdana;fill:#525c61"
     id="text460"
     font-size="8.0625px"
     y="-146.3307"
     x="376.38977">
    <tspan
       id="tspan458"
       dy="12"
       x="376.38977">Prédictible</tspan>
  </text>
  <rect
     style="fill-opacity:0;stroke-opacity:0"
     id="rect462"
     ry="3"
     rx="3"
     height="20"
     width="54"
     y="-124.33"
     x="371.39001" />
  <line
     style="stroke:#495879;stroke-width:1px"
     id="line464"
     y2="-107.33"
     y1="-107.33"
     x2="423.39001"
     x1="373.39001" />
  <text
     style="font-size:8.0625px;font-family:verdana;fill:#525c61"
     id="text468"
     font-size="8.0625px"
     y="-110.3307"
     x="376.38977">
    <tspan
       id="tspan466"
       x="376.38977">Attendue</tspan>
  </text>
  <g
     id="g480"
     preserveAspectRatio="none"
     focusable="true"
     height="100"
     width="100"
     transform="translate(196.39,-133.33)">
    <rect
       style="fill-opacity:0;stroke-opacity:0"
       id="rect470"
       ry="3"
       rx="3"
       height="20"
       width="58"
       y="-3"
       x="-2" />
    <line
       style="stroke:#495879;stroke-width:1px"
       x1="0"
       id="line472"
       y2="14"
       y1="14"
       x2="54" />
    <text
       style="font-size:8.0625px;font-family:verdana;fill:#525c61"
       id="text476"
       font-size="8.0625px"
       y="3"
       x="3">
      <tspan
         id="tspan474"
         dy="1em"
         x="3">Conclusion</tspan>
    </text>
    <circle
       style="fill:#cfe2f3;stroke:#023bb9;stroke-width:1px"
       id="circle478"
       r="3"
       cy="14"
       cx="57"
       height="6"
       width="6" />
  </g>
  <path
     style="fill:none;stroke:#9b74e6;stroke-width:2px;stroke-dasharray:4, 2"
     inkscape:connector-curvature="0"
     id="path482"
     d="m 624.39,175.67 c 17,1 23,-23 -7,-24" />
</svg>
